<?xml version="1.0" encoding="UTF-8"?>
<svg version="1.1" viewBox="0 0 2048 913" width="1280" height="1280" xmlns="http://www.w3.org/2000/svg">
<path transform="translate(0)" d="m0 0h2048v913h-2048z" fill="#383938"/>
<path transform="translate(1538,134)" d="m0 0 24 8 34 13 19 6 13 4 15 5 15 7 21 11 11 8 11 11 10 19 7 19 14 56 12 42 16 50 1 5-19 7-72 24-21 5h-13l-4-2-1 8-6 19-5 25-9 29-1 11 4 10 7 11 4 11-1 17-6 18v12l2 13 4 8 6 9 1 3v13l-3 13v16l3 24 2 13 2 35v31l-6 5-20 5-35 5-37 3-20 1h-58l-51-5-40-6-29-6-25-7-14-6-8-7-4-9-2-5 1-7 3-6 2-26 3-19 3-11-1-7-5-21-2-6 1-7 1-2v-13l-1-7v-25l5-22 11-35 4-15-1-10-13-56-4-21v-28l2-32v-22l-3-16-2-5v-3l-1 1 4 20 1 19-2 36-3 22-2 3h-10l-21-5-36-12-46-15-4-2 1-8 15-48 19-67 8-29 5-12 8-16 7-9 14-11 21-12 21-11 17-6 21-7 26-10 25-10 6-3 5 1 6 8 8 8 14 10 10 5 15 4 17 2h20l20-3 12-4 11-7 10-12z" fill="#AC8535"/>
<path transform="translate(1538,134)" d="m0 0 24 8 34 13 19 6 13 4 15 5 15 7 21 11 11 8 11 11 10 19 7 19 14 56 12 42 16 50 1 5-7 3h-5l5-5v-4l-5-2-4-7-1-8-4-9-3-15-2-3-3-13-6-16-6-11-3-3-5-13-7-14-3-2-1-8 1-7-5-10-2-2h-37l-5 5-2 12 1 12 4 9 2 6v8l-3 4-6-1-7-4h-13l-8 6-6 11-4 4-12 6-14 3h-8l-9 3-8 1-5-5-1 2h-2l-2 4-9 9-8 7-14 14-8 7-9 9h-2v2l-8 7-13 13-8 7-7 7-8 7-7 7-10 8-4 1-5-2-5-16-18-71-7-27-2-2v7l-3 4-9 1-17 1-9 1-5-1-11-3-16-2-17-4-6-5-3-9v-6l-2-3-4-2-8 2-9 4-3-4-3-11-1-18v-12l-11-1-5-2-5 1-5 5-10 18h-2l-2 9-3 7-8 12-6 8-8 17-2 4-2 13-3 9-2 14-5 12-4 6-3 1v3l-9-1-7-3 1-8 15-48 19-67 8-29 5-12 8-16 7-9 14-11 21-12 21-11 17-6 21-7 26-10 25-10 6-3 5 1 6 8 8 8 14 10 10 5 15 4 17 2h20l20-3 12-4 11-7 10-12z" fill="#C4A44D"/>
<path transform="translate(1288,327)" d="m0 0h2l5 16 1 8v22l-2 32v28l5 26 13 55-1 9-7 25-9 29-3 15v25l1 7v13l-2 5 1 8 3 9 4 17-1 7-4 19-2 18-1 16-4 8v5l5 12 5 6 14 7 24 7 9 3-4 1-20-2-3 1-5 1-12 3-15 9-7 2h-17l-7-2-6-4-8-9-6-15-4-15-4-24-2-21-3-37-2-11-1-17-3-31-3-21-2-38-4-24-5-13-10-19-9-14-9-16-6-17-2-9v-9l3-10 4-13 4-7-2-3v-3l-5-1v-1l8 1 55 18 24 8 21 5h10l2-8 2-16 2-36-1-19z" fill="#1D1D1D"/>
<path transform="translate(1015,232)" d="m0 0h30l8 2 12 5 7 7 5 10 3 8v24l-3 12-6 15-8 14-11 14-9 9-12 9-3 2 1 7 6 13 7 17 7 15 6 16 5 11 4 10-1 4-14 5-19 7-20 7h-6l-5-15-5-18-3-11-4-15-6-23-3 9-2 14-4 21-3 21-3 8-8 3-16 4-25 6-6 2h-7l3-21 17-85 1-10 2-10 3-14 3-19 4-20 5-35 3-22 2-2 21-5 17-3z" fill="#FCFCFB"/>
<path transform="translate(339,228)" d="m0 0h6l-5 74-4 82-1 49-1 4-1 33-10 2-11 1-2 1-22 3-21 3 4-36 2-20h-19l-2 10-4 13-2 9-4 14-1 1-25 3-2 1-22 2-8 1h-9l7-25 8-28 7-22 4-13 3-12 3-8 7-25 7-22 4-14 9-30 6-21 5-18 6-2 39-3 34-4 13-2z" fill="#FCFCFC"/>
<path transform="translate(895,229)" d="m0 0h12l-1 21-4 64-3 62-2 56-1 38-3 1-24 3-18 3-8 2-13 1 1-13 5-43h-19l-4 17-4 12-2 9-3 9-58 7h-8l7-28 3-8 7-23 5-17 4-15 2-5 5-18 5-15 7-24 5-18 6-19 5-17 2-9 3-8 3-11 2-4 5-1 39-3 33-4z" fill="#FCFCFC"/>
<path transform="translate(629,228)" d="m0 0h6l-4 57-4 76-3 76-1 33-21 3-42 7h-3l4-36 2-20h-19l-2 10-10 36-1 1-57 7h-9l7-25 12-40 4-15 3-8 20-67 15-51 6-21 3-10 1-2 5-1 39-3 34-4z" fill="#FCFCFC"/>
<path transform="translate(1457,581)" d="m0 0 7 1 9 7 2 5-1 8-5 11-6 8-8 7-4 4-10 7-5 5-3 1v2l-15 8-13 13h-2l-1 3-8 6-5 1h-11l-39-3-12-4-13 1-11 6-1 2v7l3 12h24l13 1h9l14 3 3 3-1 5-3 2-13 3-13 4-13 6-16-2h-7l-2 4 1 6 9 4 8 2h20l16 3 14 1h35l10 2 14 1 21 5 8 2 26 2 6 1 13 1 13-2 16-4 19-3 36-9 6-2 11-8h19l3 3 3 15 2-3 1-6 2-4h1l1 12 1 3v31l-6 5-20 5-35 5-37 3-20 1h-58l-51-5-40-6-29-6-25-7-14-6-8-7-4-9-2-5 1-7 3-6 2-26 3-19 3-11-1-7-5-21-2-6 1-7 2-3 1-10 6-7 5-5 8-7 6-3 5 1 9 5 13 9 2 13 1 5 2 4 7 2 11-3 2-4 4-1v-2l8-7 8-6h3v-2l5-3h2l1-3 5-3 9-6 5-5 11-8 8-5z" fill="#C4A44D"/>
<path transform="translate(427,231)" d="m0 0h5v9l-9 89-1 19-2 13-1 2h2l1-8 4-18 2-11 3-12 2-13 2-6 7-37 4-16 2-7 1-1 36-1 14-1h11l-3 11-7 25-4 13-3 13-4 15-10 40-4 15-3 12-1 1-3 15-5 18-3 15-3 12-5 21-2 9-2 3-80 12-2 1h-11l1-17 7-83 5-67 2-42 1-40 32-1z" fill="#FCFCFC"/>
<path transform="translate(1538,134)" d="m0 0 24 8 34 13 19 6 13 4 15 5 15 7 21 11 11 8 11 11 1 5-4-2-5-2-12-1-15-5-17-1h-13l-13 2-6 5-10 4-7 3-19 2-10 2h-7l-12-2h-10l-3-2v-2l-6-2-3-5-10-4-15-3-8-3-9-1h-11l-30 3-13 5-15 8-13 12-11 6-7 3-11 13-21 9-3-1-1-5h-10v-2h-5l-3 1 1-13-9-8-8-4-8-5-19-4-5-3-19 1-16 5-12 6-8 1-9 8-5 8-1-3 5-13 7-12 6-7 13-10 21-12 21-11 17-6 21-7 26-10 25-10 6-3 5 1 6 8 8 8 14 10 10 5 15 4 17 2h20l20-3 12-4 11-7 10-12z" fill="#E1C66F"/>
<path transform="translate(776,233)" d="m0 0h8v9l-3 12-3 18-2 9-2 6-3 2-8 2-13 2h-5l-2 10-2 14-3 13-3 17-2 17-4 25-1 2-1 10-2 9-3 21-6 39-1 1-46 7-2 1-20 2 2-16 2-6 2-13 3-12 8-42 5-24 6-39 2-8 1-11 2-9 1-11h-23l-6-3v-31l1-18 1-1h67l33-2 5-1z" fill="#FCFCFB"/>
<path transform="translate(1395,283)" d="m0 0h8l65 17 68 18 15 5 2 2v6l-7 8-16 15-11 11-8 7-9 9h-2v2l-8 7-13 13-8 7-7 7-8 7-7 7-10 8-4 1-5-2-5-16-18-71-13-49-3-10 1-7z" fill="#2D281F"/>
<path transform="translate(193,660)" d="m0 0h151l4 4v45l-5 5h-150l-5-5v-44z" fill="#E2B956"/>
<path transform="translate(1288,752)" d="m0 0 6 2 14 6 19 5 11 2h10l5-2 17 1 40 3 26 3 37 2h10l11 1h29l20-2 14-3 19-2h15l14 4 3 2v2l8 1 4 2h2v-3h2l1-8 1-2h2v-7l1 2 4 1v18l-5 3-15 4-1 1 2 2-32 5-30 3-35 2h-58l-51-5-40-6-29-6-25-7-14-6-8-7-4-9z" fill="#AC8534"/>
<path transform="translate(1499,186)" d="m0 0h16l25 4 14 4 12 4h22l21-6 17-4 7-1h8l18 5 15 6 11 1 14 9 2-1 1 5-4-2-5-2-12-1-15-5-17-1h-13l-13 2-6 5-10 4-7 3-19 2-10 2h-7l-12-2h-10l-3-2v-2l-6-2-3-5-10-4-15-3-8-3-9-1h-11l-30 3-13 5-15 8-13 12-11 6-7 3-11 13-21 9-3-1-1-5h-10v-2h-5l-3 1 1-13-9-8-8-4-8-5-19-4-5-3-19 1-16 5-12 6-8 1-9 8-5 8-1-3 3-7h3l2-5 5-6 9-4 12-5 11-3 7-3 17-2h15l9 1 21 7 5 2 12 2 10 4h6l11-3 11-1 5-3 11-7 9-4 18-6 17-4 29-2z" fill="#D2B86B"/>
<path transform="translate(1396,287)" d="m0 0 8 1 39 10v2h-5l7 26v4l5-3 10-10 2 1-3 5-9 9-1 2 10 2 18 5v2l-9-1-9-2-9-3-2-1 5 22 2 8 5-2-3 7 7 1 26 7-1-7h2l2 5 5-3 8-8 8-7 2-4-7-2-7-3v-1l8 1 8 2-3-13v-5h2l4 14v3l5-3 7-7 8-7 5-6-6-1-1-2 9 1 3 1-1 4-12 11-10 9-7 7-8 7-12 11-10 9-17 16-8 7-14 13-16 14h-3l-4-15-16-64-14-54-3-10z" fill="#29251E"/>
<path transform="translate(1536,133)" d="m0 0h2l-1 6-6 11-10 11-12 7-15 4-15 2h-20l-21-3-16-5-11-7-11-9-9-9-2-5 19 5 19 2h53l25-2 20-4z" fill="#AC8535"/>
<path transform="translate(1366,451)" d="m0 0 3 1 3 8-1 10-5 16-4 9-3 9-3 5-3 7-11 20-8 17-5 10-8 6-5 3-12 12-7 8-4 8h-1v-13l4-17 11-35 3-12 3-1 1 5 2 1 2-5 3-1 1-3 6-3 7-12 6-11 5-13 7-17 2-4z" fill="#C4A44D"/>
<path transform="translate(1600,571)" d="m0 0h7l4 5 4 10v2h2l2 24 3 9 8 12v11l-10-1-5-5-6-11-4-3-13-3-6-4-9-3-18-4-11-3-3-2v-2l-4-2-2-3v-8l7-6 9-3 26-4 14 1 2-4z" fill="#C4A44D"/>
<path transform="translate(1288,327)" d="m0 0h2l5 16 1 8v22l-2 32v28l5 26 13 55-1 9-7 25-9 29-2 10h-3l1-16 4-21 4-20-2-1 2-5v-2l-3-1-3-7-1-12-3-6-4-6-3-9-2-7-5-13-5-12-8-14-9-7-7-4-15-7v-2l9 2 31 9 6 1h10l2-8 2-16 2-36-1-19z" fill="#111011"/>
<path transform="translate(1370,770)" d="m0 0h19l59 6 35 6 17 4h39l-3 2-22 2 8 2v3l-10 2-7 1 12 1v1h-58l-51-5-21-3-1-2-16-4 2-6 1-1-18-5 1-2z" fill="#946F30"/>
<path transform="translate(1539,325)" d="m0 0 9 1 3 1-1 4-12 11-10 9-7 7-8 7-12 11-10 9-17 16-8 7-14 13-16 14h-3l-4-15-11-44v-5h2l-2-8 11 2 13 4 8 2-2 5-5 6-6 7-7 6 3 2 28 7-2-8v-10l-2-8v-4h10l2-1 21 6-1-7h2l2 5 5-3 8-8 8-7 2-4-7-2-7-3v-1l8 1 8 2-3-13v-5h2l4 14v3l5-3 7-7 8-7 5-6-6-1z" fill="#28231C"/>
<path transform="translate(1584,653)" d="m0 0h27l2 4v10l-6 7-5 5h-2v2h-2l-2 4-8 5-11 3-22 5h-23l-4-4 2-6 4-3 10-3 10-9 5-5 7-10 6-3z" fill="#C5A54E"/>
<path transform="translate(1677,426)" d="m0 0 3 1-15 6-5 4-2 8-4 8-3 7-11 24-4 10-5 11-5 15-2 4-6 1-2-1 3 11 5 12-1 3-9-15-4-7-1-10 4-15 6-19 6-29 6-19 1-4 4 1h13l21-5z" fill="#1D1D1D"/>
<path transform="translate(1395,283)" d="m0 0h8l65 17 68 18 15 5 2 2v6l-7 8-16 15-11 11-8 7-9 9h-2v2l-8 7-13 13-8 7-7 7-8 7-7 7-10 8-4 1-5-2-5-16-18-71-13-49-3-10 1-7zm1 4 1 9 8 29 18 70 7 29 3 11 4-1 13-12 8-7 10-9 15-14 8-7 7-7 8-7 13-12 8-7 8-8 16-14v-3l-101-27-50-13z" fill="#F7F4EB"/>
<path transform="translate(1285,309)" d="m0 0 4 1 2 5 1 14 1 6-2-2-1-6-1 1 4 20 1 19-2 36-3 22-2 3h-10l-17-4 6-7 1-7 5-5 2-8 1-10 1-5-3-24v-26l-1-7 7-7v-6z" fill="#946F30"/>
<path transform="translate(1405,712)" d="m0 0 24 2 17 4 7 4v3l-8 3-23 7-10 4h-35l-14-3-9-3-4-4 1-3 10-5 12-1 17-5z" fill="#946F30"/>
<path transform="translate(1517,365)" d="m0 0 2 1-15 15h4v7l-11 16-8 16-4 3v4h-2v2l-3 2h-12l-11 7-6 5-6-1 1-10 10-9 17-16 15-14 10-10h2v-2l8-7z" fill="#C5A54E"/>
<path transform="translate(1468,678)" d="m0 0h8l13 9 6 4 1 4-4 4-9 2-22 2h-9l-18-4-8-2-3-2 1-6 3-1 15-1 17-6z" fill="#C5A54E"/>
<path transform="translate(1e3 287)" d="m0 0h22l9 3 1 1v5l-7 9-11 10-14 9-5 2h-3l1-7 3-17 2-8z" fill="#403F38"/>
<path transform="translate(190,28)" d="m0 0 17 4 22 7-1 5-26 26h-3l-5-18-4-17z" fill="#D2BF91"/>
<path transform="translate(1536,133)" d="m0 0h2l-1 6-6 11-6 5-3-3-24 4-11-1-2-6 1-3 9-2 16-3v-1l17-4z" fill="#946F30"/>
<path transform="translate(1443,337)" d="m0 0 2 1 7 27v4l-10-2-22-6v-3l12-11z" fill="#F7F4EC"/>
<path transform="translate(1428,399)" d="m0 0 13 3 16 4 3 1v3l-8 7-11 10-6 4-5-18z" fill="#FAF8F2"/>
<path transform="translate(1480,348)" d="m0 0 3 1 7 27v3l-7-1-26-7 2-4 10-9 8-7z" fill="#F8F5EC"/>
<path transform="translate(1486,347)" d="m0 0 12 2 7 2 5 2 7 2-2 4-7 7-8 7-6 5-2-1-4-16-2-10z" fill="#FAF8F2"/>
<path transform="translate(1508,322)" d="m0 0 4 1 6 24v5l-8-1-21-6-2-1 2-4 7-7 8-7z" fill="#F8F5EC"/>
<path transform="translate(1452,374)" d="m0 0h2l7 26v4l-9-1-22-6v-3l13-12z" fill="#F7F4EB"/>
<path transform="translate(1409,326)" d="m0 0 8 1 19 6 5 1-2 4-16 15-5 4h-2l-3-12-2-9z" fill="#F9F7F0"/>
<path transform="translate(1514,321)" d="m0 0 13 2 5 2 14 3-2 4-9 9-8 7-3 3h-3l-3-11-3-14z" fill="#FAF8F2"/>
<path transform="translate(1433,301)" d="m0 0h2l7 25v5l-9-1-21-6v-3l12-12 8-7z" fill="#F9F6EF"/>
<path transform="translate(1448,336)" d="m0 0 10 2 21 6-2 4-16 15-6 4-3-9-4-16z" fill="#FAF7F2"/>
<path transform="translate(1400,291)" d="m0 0 11 1 7 2 13 4-2 4-17 16-3 3h-2l-3-13-3-9z" fill="#FAF9F4"/>
<path transform="translate(1418,363)" d="m0 0 11 2 13 4 8 2-2 4-10 9-11 10-2-1-4-18z" fill="#FAF8F3"/>
<path transform="translate(1470,312)" d="m0 0h2l4 11 4 15v3l-10-1-21-6 2-4 11-11z" fill="#F8F6EF"/>
<path transform="translate(1438,300)" d="m0 0 7 1 5 2 16 4 3 1-2 4-16 15-3 3h-3l-7-26z" fill="#F9F6EE"/>
<path transform="translate(1457,374)" d="m0 0 7 1 18 5 6 1-1 4-12 11-9 8h-2l-4-15-3-11z" fill="#FAF8F3"/>
<path transform="translate(1476,311)" d="m0 0 10 1 11 3 5 2 5 1v3l-8 7-10 9-4 4h-2l-5-21-2-7z" fill="#FAF9F4"/>
<path transform="translate(1327,533)" d="m0 0 3 1-2 5-7 12-7 9-7 8-3 2h-3v2h-2v2h-2v-7l9-27 3-2 2 9 4-1 9-9z" fill="#D2B96C"/>
<path transform="translate(281,312)" d="m0 0h2l-1 17-4 44-1 7-1 1h-11l1-6 12-49z" fill="#4C483B"/>
<path transform="translate(571,312)" d="m0 0h2l-1 16-3 35-2 17-1 1h-11l4-19 7-28z" fill="#49453A"/>
<path transform="translate(844,312)" d="m0 0h2l-4 43-2 23-1 3h-11l2-12 9-38 4-16z" fill="#484439"/>
<path transform="translate(1626,678)" d="m0 0h2l3 24 1 5v19h-1l-4-16-5-3-9-4-2-5 1-5 4-3h2v-2l5-3z" fill="#C2A14B"/>
<path transform="translate(1410,339)" d="m0 0h2l4 12v6l5-2-1 5 26 7 6 2-3-12v-4l3 1 3 12 5-2-3 7 7 1 4 2v1l-11-1 3 12v5l-2 1-4-15v-3l-10 8-2-1 7-8 1-2-12-2-12-4-8-2 2 8-3 1-7-28z" fill="#1F1D1A"/>
<path transform="translate(1650,315)" d="m0 0 1 3-3 6v8l-2 2-2-2-8 24v44l2 29-2 4-4-2v-67l2-9 2-10 8-21 4-8z" fill="#806331"/>
<path transform="translate(1300,630)" d="m0 0 6 4 6 8 2 4-1 6-7 4h-6v-2h-2l-4-12-2-2 1-4z" fill="#D1B86B"/>
<path transform="translate(1539,325)" d="m0 0 9 1 3 1-1 4-12 11-10 9-7 7-8 7-12 11-4 2 2-5 7-7 8-7 2-4-7-2-7-3v-1l8 1 8 2-3-13v-5h2l4 14v3l5-3 7-7 8-7 5-6-6-1z" fill="#2A261E"/>
<path transform="translate(199,32)" d="m0 0 3 1 2 8 9 1 4-4h3l1 7h3v-2h2v-2l-4-2 5 1 1 4-10 10-4 2-11 11-3-1 4-3v-3l6-3 1-2-7-1-4 5h-2l2-4 3-4v-7h-2l-1-3z" fill="#C3B491"/>
<path transform="translate(1592,546)" d="m0 0h9l5 2v6l-12 4-6 1h-13l-2-3 5-6 6-3z" fill="#946F30"/>
<path transform="translate(1595,496)" d="m0 0 4 4 5 12 6 12 4 10 4 6-1 3-9-8v-2h-2l-6-11-4-8-3-15v-2z" fill="#C3A24C"/>
<path transform="translate(1396,287)" d="m0 0 8 1 12 3 1 3h-5l-1-1-11-2 4 16 3 9v5l8-7 6-6 2 1-3 5-8 8-1 4h-2l4 12-1 4v-3l-3 1-11-41-2-7z" fill="#27231D"/>
<path transform="translate(1418,371)" d="m0 0h3l3 11 2 11 7-6 8-7 4-4 2 1-4 5-6 7-7 6 3 2 3 1v2h-6l-2-1 5 22 1 2v8h-2l-8-31-6-24z" fill="#22201C"/>
<path transform="translate(190,28)" d="m0 0 17 4 22 7-1 4-1-3h-3l2 1v2h-2v2h-3l-1-7-5 3-2 2-9-1-2-5v-4l-2 1 1 7-6-2-4-4h-1z" fill="#D9C281"/>
<path transform="translate(1513,618)" d="m0 0 9 1 15 3 2 2-3 2-18 1-5 2h-12l2-7 6-3z" fill="#946F30"/>
<path transform="translate(1288,327)" d="m0 0h2l5 16 1 8v22l-3 52h-1l-1-5-2 3 2-20 2-36-1-19z" fill="#1A191A"/>
<path transform="translate(1505,315)" d="m0 0 17 4 18 5v2l3 2-5-1-7-2-14-3h-2l3 11-1 3v-2l-3 1-3-12-4 1-9 9-3 1 2-4 7-8 3-1v-3h-5z" fill="#393223"/>
<path transform="translate(1489,372)" d="m0 0h2l2 5 4-1-1 4-11 11-8 7-6 5v-3l12-13 4-3 1-3-9-1-15-4 3-3 16 4 7 2z" fill="#22201C"/>
<path transform="translate(203,575)" d="m0 0h9l4 3v9l-4 4h-9z" fill="#FBF9F4"/>
<path transform="translate(1417,292)" d="m0 0 10 2 16 4v2h-5l6 22v7h-2l-7-25v-3l-8 7-5 3 2-5 7-8-13-3z" fill="#201F1D"/>
<path transform="translate(614,543)" d="m0 0h3v4h7l1 2v9h-3v-9h-4v9l-1 1h-7l-2-2v-9l-2-1h2v-3h3v3h3z" fill="#7A673D"/>
<path transform="translate(607,579)" d="m0 0h10v14l-3 3h-7l-1-4h6l-6-2-1-1v-8z" fill="#E1DBCA"/>
<path transform="translate(1314,262)" d="m0 0 8 1 1 8-4 1-4-1-6 5-5-1-1-5 2-4z" fill="#D1B86B"/>
<path transform="translate(1583,432)" d="m0 0 4 1 2 12v11h-3l-5-5-2-6 1-8z" fill="#C5A54E"/>
<path transform="translate(1312,751)" d="m0 0 12 2 5 4-1 3-3 2h-10l-7-3v-5z" fill="#D2B96C"/>
<path transform="translate(469,543)" d="m0 0h3v15l-4-1-3 2-6-1-2-2v-7l2-2h7l2 2z" fill="#8F8672"/>
<path transform="translate(1389,136)" d="m0 0 6 2 1 2 10 3 1 5h2l3 9 2 2-4-1-10-8-9-9z" fill="#957030"/>
<path transform="translate(204,53)" d="m0 0 7 1v3l-6 4-2 4 5-4 8-8v3l-14 14h-3l-3-12 2-1v2h2l2-4z" fill="#E0CFA1"/>
<path transform="translate(673,543)" d="m0 0h3v4h6l3 3-1 7-3 2h-7l-1-1z" fill="#F5EDD3"/>
<path transform="translate(1410,339)" d="m0 0h2l4 12v6l5-2-1 5 10 3 1 2-10-1-3-1 2 8-3 1-7-28z" fill="#1D1B19"/>
<path transform="translate(730,575)" d="m0 0h3v15l-1 1h-8l-2-2v-8l2-2h6z" fill="#F6F1E2"/>
<path transform="translate(573,579)" d="m0 0h16l1 2v10h-3v-9h-4v9h-3v-9h-3v9h-4z" fill="#F7F2E3"/>
<path transform="translate(347,547)" d="m0 0h9v16h-3v-4h-5l-3-3v-7z" fill="#F3EBD5"/>
<path transform="translate(422,575)" d="m0 0h4v13l5-1 1-12h4v13l-3 3h-8l-3-4z" fill="#F6F0DD"/>
<path transform="translate(1306,540)" d="m0 0h2v11l-4 12-5 8-2 3v-7z" fill="#DABE68"/>
<path transform="translate(197,608)" d="m0 0h3v15l-1 1h-6l-4-3v-6l4-3h4z" fill="#F6F1E0"/>
<path transform="translate(423,543)" d="m0 0h2v16h-8l-3-3v-6l3-3h6z" fill="#EFE5C7"/>
<path transform="translate(728,542)" d="m0 0 2 1v15l-7 1-4-3v-6l2-3h7z" fill="#FAF7ED"/>
<path transform="translate(270,579)" d="m0 0h6l3 4v5l-4 4h-5l-3-4 1-7z" fill="#EEE3C3"/>
<path transform="translate(667,579)" d="m0 0h6l3 3v6l-3 3h-7l-2-4v-5z" fill="#D3CDB9"/>
<path transform="translate(1183,343)" d="m0 0h1l-1 8-13 41-2 2v-8l7-21z" fill="#202120"/>
<path transform="translate(529,579)" d="m0 0h6l3 5v5l-3 2h-7l-2-3 1-7z" fill="#D3CEBE"/>
<path transform="translate(462,579)" d="m0 0 5 1 2 2-1 8-3 2-5-1-3-3 1-7z" fill="#E1DAC7"/>
<path transform="translate(343,579)" d="m0 0h6l3 3v7l-4 3-5-1-2-2v-7z" fill="#EDE2C2"/>
<path transform="translate(281,579)" d="m0 0h15l1 1v11h-3v-10l-3 1-1 9h-3v-10h-3v10h-3z" fill="#EDE2BF"/>
<path transform="translate(495,575)" d="m0 0h4v4h6l1 2v10h-4v-9h-3v9h-4z" fill="#F4EDD9"/>
<path transform="translate(395,579)" d="m0 0 7 1 1 2v7l-3 3-6-1-2-2v-6z" fill="#F8F3E3"/>
<path transform="translate(436,547)" d="m0 0h6l3 3v6l-3 3-7-1-2-3v-5z" fill="#CBC1A5"/>
<path transform="translate(651,576)" d="m0 0 4 1 2 4-1 1v6l2 1 1-10h3v12h-10l-1-1-1-12z" fill="#F6F0DF"/>
<path transform="translate(757,547)" d="m0 0h7l2 2v8l-2 2-7-1-2-2v-7z" fill="#B1A277"/>
<path transform="translate(382,579)" d="m0 0 7 1 1 2v7l-3 3-6-1-2-3 1-7z" fill="#F9F6EC"/>
<path transform="translate(313,612)" d="m0 0h6l3 3v6l-3 3h-6l-2-2v-8z" fill="#F7F2E1"/>
<path transform="translate(277,547)" d="m0 0h7l2 2v7l-3 3h-6l-2-4v-6z" fill="#EEE3C6"/>
<path transform="translate(273,612)" d="m0 0h7l2 2v7l-1 2-7 1-3-3v-6z" fill="#F7F2E1"/>
<path transform="translate(243,612)" d="m0 0h7l2 3v6l-3 3-7-1-1-2v-7z" fill="#B7AB88"/>
<path transform="translate(636,547)" d="m0 0h6l2 2v8l-3 2h-5l-3-3v-6z" fill="#F5EFDC"/>
<path transform="translate(594,579)" d="m0 0h6l3 2v10h-10l-1-1v-5l7-1v-2l-7 1z" fill="#E9E2CF"/>
<path transform="translate(1650,315)" d="m0 0 1 3-3 6v8l-2 2-2-2-6 18-1 5-2-4 2-9 8-20 3-6z" fill="#946F30"/>
<path transform="translate(205,612)" d="m0 0h6l3 3-1 7-2 2-7-1-1-1v-8z" fill="#A89A76"/>
<path transform="translate(1384,650)" d="m0 0 3 1-6 7-4 3-8-1-2-1 2-4z" fill="#D2B96C"/>
<path transform="translate(473,579)" d="m0 0h6l2 2v10h-10l-1-5 2-2h5v-2l-6 1z" fill="#EAE5D6"/>
<path transform="translate(438,579)" d="m0 0h10l2 2v10h-4l-1-8h-2l-1 8h-4z" fill="#F4EDD7"/>
<path transform="translate(640,579)" d="m0 0h6l2 2v10h-9l-2-2 1-4 1-1h5v-2l-6 1z" fill="#EAE4D5"/>
<path transform="translate(323,612)" d="m0 0 3 1 2 4 2-5 3 1 2 3 2-4h2l-2 9-1 2-4-1v-4h-2l-1 5-4-1z" fill="#F3EBD7"/>
<path transform="translate(678,579)" d="m0 0h9l2 2v10h-4l-1-8-3-1v9h-4v-11z" fill="#F2EACF"/>
<path transform="translate(624,579)" d="m0 0h10l2 3v9h-4v-9l-3 1-1 8h-4z" fill="#F5EFDC"/>
<path transform="translate(767,547)" d="m0 0 3 1 1 5 2-6h4v5l2-1 1-4h3l-2 10-5 1v-5l-2 1-1 4h-4l-2-7z" fill="#F5F0DF"/>
<path transform="translate(584,547)" d="m0 0h3l2 5 2-5h3l2 5 2-5h3l-3 11h-4l-1-4-2 4h-4z" fill="#F4EDD7"/>
<path transform="translate(218,607)" d="m0 0h8v3l-7-1v3h6l1 1v11h-3l-1-10h-3v9h-3l-1-11z" fill="#F0E7CA"/>
<path transform="translate(513,579)" d="m0 0h4l2 6 3-5h3l-1 6-4 8-2 2h-4l2-4-1-5-2-5z" fill="#F4EEDC"/>
<path transform="translate(572,544)" d="m0 0h3v3h2v2h-2l1 7 2 1v2h-5l-1-2v-8h-6v10l-3-1v-11h9z" fill="#EDE0B7"/>
<path transform="translate(699,579)" d="m0 0h6l2 3v8l-4 2h-5l-2-3 1-4 7-1-1-2h-6z" fill="#F6F1E1"/>
<path transform="translate(247,547)" d="m0 0h6l2 2v5l-7 1h7v3l-2 1h-6l-3-5 1-5z" fill="#D9CEAD"/>
<path transform="translate(391,547)" d="m0 0h7l2 2v9l-1 1h-8l-2-2v-4l7-2 1-2-7 1z" fill="#DCD2B5"/>
<path transform="translate(227,547)" d="m0 0h7l2 2v9l-1 1h-8l-2-2v-4l7-2 1-2-7 1z" fill="#DAD1B8"/>
<path transform="translate(192,575)" d="m0 0h6l2 2v7l1 5-4 3-6-1-1-4 7 1 1-3-5-1v-2l3-1v-3l-6 2 1-4z" fill="#F2E9CD"/>
<path transform="translate(194,542)" d="m0 0 7 1 2 2v3l-4-2h-5l-1 1v7l1 1h5l4-2-1 4-3 2-7-1-3-4 1-8z" fill="#F3EBD3"/>
<path transform="translate(518,547)" d="m0 0h6l2 2v5h-8l1 2 7-1-2 4h-6l-3-3v-6z" fill="#E2D9BE"/>
<path transform="translate(318,579)" d="m0 0h6l2 2v10l-8 1-2-2v-4l4-2h3v-3l-6 2z" fill="#DBD3BA"/>
<path transform="translate(373,547)" d="m0 0h7l2 2v5h-8l1 2 6-1v3l-6 1-4-3v-7z" fill="#CFC094"/>
<path transform="translate(215,547)" d="m0 0h7l2 2-1 5h-7l1 2 6-1v3l-7 1-3-3v-7z" fill="#D0C297"/>
<path transform="translate(485,579)" d="m0 0h7l1 4-6-1v2l6 1 1 4-2 2h-8l-1-4h3l-3-2 1-5z" fill="#F3EBD3"/>
<path transform="translate(1634,763)" d="m0 0h1v18l-6 5-11 3h-8l3-3 18-5 2-2z" fill="#B99744"/>
<path transform="translate(540,579)" d="m0 0h3l1 8 3 1v-8h4v11h-10l-1-1z" fill="#FAF8F1"/>
<path transform="translate(696,547)" d="m0 0h7l1 2v10h-8l-2-2 1-5h6v-3l-6 1z" fill="#DED7C1"/>
<path transform="translate(398,612)" d="m0 0h6l3 3v3h-8v3l7-1v3l-7 1-3-2v-8z" fill="#F2EBD9"/>
<path transform="translate(190,28)" d="m0 0 14 3-4 3 1 7-6-2-4-4h-1z" fill="#DCC998"/>
<path transform="translate(1539,325)" d="m0 0 9 1 3 1-1 4-12 11-5 3 2-5 10-10 1-2-6-1z" fill="#26221D"/>
<path transform="translate(1292,379)" d="m0 0h1l1 26-1 20h-1l-1-5-2 3 2-20z" fill="#232323"/>
<path transform="translate(202,34)" d="m0 0 8 1 7 3-4 5-9-1-2-5z" fill="#DDD4BF"/>
<path transform="translate(615,543)" d="m0 0h2v4h7l1 2v9h-3v-9h-4v9h-3z" fill="#F6F1DF"/>
<path transform="translate(354,579)" d="m0 0h8l2 2v10h-3l-1-9h-2l-1 9h-3z" fill="#EDE0B9"/>
<path transform="translate(257,684)" d="m0 0h5l2 3-1 6-1 1h-5l-3-4 2-5z" fill="#141314"/>
<path transform="translate(378,612)" d="m0 0h3l3 6 3-6h2l-1 5-4 10-5 1 2-3-1-6z" fill="#F2EAD2"/>
<path transform="translate(742,547)" d="m0 0h9l2 2v9l-3 1-1-9-4-1v10l-3-1z" fill="#F1E7C8"/>
<path transform="translate(302,684)" d="m0 0 5 1 1 1v6l-1 2h-6l-2-3 1-6z" fill="#735E31"/>
<path transform="translate(284,612)" d="m0 0h3v10h5v-10h3v11l-1 1h-8l-2-3z" fill="#F1E6C6"/>
<path transform="translate(206,577)" d="m0 0 6 1 1 1v8l-2 2h-5z" fill="#3D3C37"/>
<path transform="translate(263,547)" d="m0 0 3 1 2 5h1l2-6h3l-3 9-3 6-4 1v-2h2z" fill="#F1E8CE"/>
<path transform="translate(402,547)" d="m0 0h9l1 3v8h-3v-9h-4v10h-3z" fill="#F0E8CE"/>
<path transform="translate(341,612)" d="m0 0h9l1 1v10h-3v-9h-4v9h-3z" fill="#FAF8F1"/>
<path transform="translate(647,547)" d="m0 0h2v9h5v-9h3v12h-8l-2-2z" fill="#E9DAAB"/>
<path transform="translate(288,547)" d="m0 0h3v10h4v-10h3v11l-8 1-2-2z" fill="#F5EED6"/>
<path transform="translate(546,543)" d="m0 0h2v4h6l2 2v9h-3v-9h-5v10h-2z" fill="#FAF7EE"/>
<path transform="translate(1436,303)" d="m0 0 3 1 5 18v7h-2l-6-21z" fill="#1D1B1A"/>
<path transform="translate(215,680)" d="m0 0 6 1 2 4-7-2-1 1v8l8-3-1 4-2 1h-6l-3-4v-6z" fill="#23211E"/>
<path transform="translate(251,579)" d="m0 0h6l1 3-5-1v3l6 2-1 5-6 1-3-4 7 1v-3h-5l-1-1v-5z" fill="#F0E6C9"/>
<path transform="translate(709,579)" d="m0 0h9l1 2v10h-2l-1-9h-3l-1 9h-3z" fill="#F5F0E2"/>
<path transform="translate(1449,419)" d="m0 0m-2 1 3 1-6 7-8 7h-3l-1-4h2l1-4 1 3z" fill="#2D281E"/>
<path transform="translate(259,612)" d="m0 0 3 1 1 6h2l2-6h3l-2 7h-2v5l-2 3-4-1 2-4z" fill="#F3EBD6"/>
<path transform="translate(229,612)" d="m0 0h8l2 2v10h-3l-1-9h-3l-1 9h-2z" fill="#ECDFB9"/>
<path transform="translate(227,579)" d="m0 0h6l2 4-6-1-1 1v5l7-1v3l-3 2h-5l-3-4v-6z" fill="#EFE6C9"/>
<path transform="translate(535,547)" d="m0 0h7v3l-5-1v2l5 1 2 2-1 4-7 1-2-4 6 1 1-2-6-1-1-4z" fill="#F7F2E0"/>
<path transform="translate(359,547)" d="m0 0h3v10h4l1-10h2v12h-8l-2-2z" fill="#F2E8CA"/>
<path transform="translate(217,38)" d="m0 0h3l1 7h3v-2h2v-2l-4-2 5 1 1 4-10 10h-3l2-4h2v-3l-2-1h3l-1-6h-2z" fill="#9C8245"/>
<path transform="translate(475,547)" d="m0 0h2l1 9 4 1v-10h3v12h-8l-2-2z" fill="#FCFBF8"/>
<path transform="translate(361,612)" d="m0 0h6l1 3-5-1 1 2 5 2-1 6h-7l-1-4 6 2v-3l-5-1-1-5z" fill="#F5EED9"/>
<path transform="translate(315,547)" d="m0 0h2v9h5v-9h3v11l-8 1-2-2z" fill="#F5EED6"/>
<path transform="translate(237,579)" d="m0 0 3 1v9l4-1 1-8 2 1v10h-9l-1-1z" fill="#F2E8C9"/>
<path transform="translate(488,547)" d="m0 0h7l1 3-6-1 1 2 6 3-1 4-1 1h-6l-2-4 7 2v-3l-7-2z" fill="#F8F3E4"/>
<path transform="translate(305,579)" d="m0 0h9v3l-5 7h6v2h-10l1-4 3-3 1-3h-5z" fill="#F5EED7"/>
<path transform="translate(328,547)" d="m0 0h8l2 2v9h-3v-9h-5v10h-2z" fill="#F5EFDC"/>
<path transform="translate(1451,335)" d="m0 0 8 1 18 5v2l-9-1-9-2-8-4z" fill="#201F1D"/>
<path transform="translate(446,547)" d="m0 0 4 1v2h2l1-3 3 1-2 3 1 5 1 3h-3l-1-4h-2l-2 4h-2l2-5-1-4z" fill="#F4EDD7"/>
<path transform="translate(1296,672)" d="m0 0 2 1 1 7-4 16-2 7h-1l1-13 2-6z" fill="#181718"/>
<path transform="translate(266,684)" d="m0 0h7l2 2v8h-3v-8h-3v8l-3-1z" fill="#292826"/>
<path transform="translate(707,547)" d="m0 0h8l2 2v9h-3v-9h-5v9h-2z" fill="#F1E9D1"/>
<path transform="translate(315,581)" d="m0 0 3 1 5-1v3l-7 2-1 4-6-1 2-4z" fill="#514936"/>
<path transform="translate(459,547)" d="m0 0h7l1 4-6-1v6l6-1-2 4-6-1-2-2v-7z" fill="#FAF7EF"/>
<path transform="translate(199,32)" d="m0 0 3 1 3 10 1 7v4l-4 2-2 3h-2l2-4 3-4v-7h-2l-1-3z" fill="#685A3A"/>
<path transform="translate(503,547)" d="m0 0h3l2 4v3h2l1-7h3l-1 6-2 5-5-1z" fill="#EFE6CA"/>
<path transform="translate(553,579)" d="m0 0h7v3h-3v9h-4z" fill="#F7F2E4"/>
<path transform="translate(1467,373)" d="m0 0 16 4v3l2 1-10-2-11-3z" fill="#4C442E"/>
<path transform="translate(261,576)" d="m0 0 3 1v2h2l-1 9 2 3h-5l-1-1-1-11z" fill="#F1E8CB"/>
<path transform="translate(373,576)" d="m0 0 3 1v2h2v2h-2l1 8 1 2-5-1-1-8-1-3h2z" fill="#F4ECD6"/>
<path transform="translate(330,576)" d="m0 0h2l2 5h-2l1 8 1 2-5-1-1-11z" fill="#F8F5E9"/>
<path transform="translate(239,544)" d="m0 0h2l2 5h-2l1 7 1 3-4-1-1-1-1-10z" fill="#F6F0DC"/>
<path transform="translate(1418,371)" d="m0 0h3l3 11v5l-3 1-3-12z" fill="#3B3627"/>
<path transform="translate(210,575)" d="m0 0 5 2 1 1v9l-4 4-3-1 3-3v-8l-3-2z" fill="#EEE4C8"/>
<path transform="translate(205,612)" d="m0 0h4v2l-3 1-1 2h5v1h-5v3h5l3-1-2 4-7-1-1-1v-8z" fill="#F8F4E6"/>
<path transform="translate(229,581)" d="m0 0 4 1 2 1v4l-3 2-5-1v-5z" fill="#464238"/>
<path transform="translate(1646,344)" d="m0 0 2 4v6l-3 4h-3l1-7z" fill="#946F30"/>
<path transform="translate(1288,327)" d="m0 0h2l5 16v5h-3z" fill="#242424"/>
<path transform="translate(226,684)" d="m0 0h2l1 7 3 1v-8h2l1 9-3 1h-5l-1-1z" fill="#181818"/>
<path transform="translate(289,684)" d="m0 0h7l-1 5-2 3h4v2h-8l2-5 2-3h-4z" fill="#1F1D1B"/>
<path transform="translate(452,575)" d="m0 0h3v16h-3z" fill="#FCFBFA"/>
<path transform="translate(608,544)" d="m0 0h3v3l2 1h-2l1 8 1 2-5-1v-9l-2-1h2z" fill="#F3EDDB"/>
<path transform="translate(1410,339)" d="m0 0h2l4 12v5h-3l-3-12z" fill="#23211C"/>
<path transform="translate(323,612)" d="m0 0 3 1 2 4 4-1v2h-2l-1 5-4-1z" fill="#EDE2C1"/>
<path transform="translate(1487,311)" d="m0 0 8 1 10 3 1 2h-8l-10-4z" fill="#28251F"/>
<path transform="translate(569,579)" d="m0 0h2v12h-4v-11z" fill="#F4ECD6"/>
<path transform="translate(1485,386)" d="m0 0m-2 1 2 1-6 8-8 7v-3z" fill="#27231D"/>
<path transform="translate(1447,375)" d="m0 0m-2 1 2 1-4 5-6 7-4 3-2-1z" fill="#2E281F"/>
<path transform="translate(1430,363)" d="m0 0 16 4v3l-8-1-9-3z" fill="#342F24"/>
<path transform="translate(398,612)" d="m0 0h6l3 3v3l-8-1-1-2-2 1z" fill="#D1C8AB"/>
<path transform="translate(391,608)" d="m0 0h3v15h-3z" fill="#F5EED7"/>
<path transform="translate(686,547)" d="m0 0h7v2l-3 1-1 9h-3z" fill="#ECE0C0"/>
<path transform="translate(1183,343)" d="m0 0h1l-1 8-5 16-2-4z" fill="#242524"/>
<path transform="translate(372,609)" d="m0 0h2l2 5h-2l1 7 2 1v2l-5-1-1-12z" fill="#F9F6EC"/>
<path transform="translate(584,579)" d="m0 0h5l1 2v10h-3v-9l-4-1z" fill="#F7F3EA"/>
<path transform="translate(676,549)" d="m0 0h5l1 1v6l-5 1-1-2z" fill="#544E3C"/>
<path transform="translate(757,547)" d="m0 0h5l-3 2-1 3 4 1h-4l1 3 3 1v2l-5-1-2-2v-7z" fill="#FBF9F5"/>
<path transform="translate(659,547)" d="m0 0h7v2h-4v10h-3z" fill="#EDE1BE"/>
<path transform="translate(1435,341)" d="m0 0m-1 1m-2 1 2 1-3 4-6 7-5 2 4-6z" fill="#2E281F"/>
<path transform="translate(659,579)" d="m0 0h3v12l-4-1v-7z" fill="#FAF7EF"/>
<path transform="translate(584,547)" d="m0 0h3l2 5h3l-1 6h-4z" fill="#E9DCB6"/>
<path transform="translate(722,549)" d="m0 0h5v7l-4 1-2-2v-5z" fill="#5A523C"/>
<path transform="translate(418,549)" d="m0 0 5 1v6l-5 1-1-7z" fill="#5A523C"/>
<path transform="translate(780,547)" d="m0 0h3l-2 10-5 1v-5l3-2z" fill="#EFE6CC"/>
<path transform="translate(680,547)" d="m0 0 4 2 1 1-1 7-3 2h-7l4-2 3-1v-6l-4-2z" fill="#F1E8CE"/>
<path transform="translate(1411,324)" d="m0 0 8 1 9 3 1 2-9-1-9-3z" fill="#1D1B1A"/>
<path transform="translate(239,684)" d="m0 0h5v2l-4-1 3 3 2 1-1 5h-6l1-3 4 1v-2l-5-1z" fill="#1A1918"/>
<path transform="translate(315,680)" d="m0 0h3v14h-3z" fill="#242220"/>
<path transform="translate(321,682)" d="m0 0h3l1 4-1 6h2v2h-4l-2-11z" fill="#29241D"/>
<path transform="translate(314,614)" d="m0 0 5 1v6l-4 1-2-2v-5z" fill="#504938"/>
<path transform="translate(726,581)" d="m0 0h3l1 2v6h-5l-1-1v-5z" fill="#544C39"/>
<path transform="translate(396,581)" d="m0 0 4 1 1 1v5l-5 1-1-1v-6z" fill="#504A3A"/>
<path transform="translate(370,612)" d="m0 0 2 2v8l-3-1v-3l-6-2v-2l5 1v-2z" fill="#6C5F3C"/>
<path transform="translate(275,614)" d="m0 0 5 1v5l-2 2-4-1v-6z" fill="#534C3A"/>
<path transform="translate(297,612)" d="m0 0h7v2h-4v9h-3z" fill="#F9F5EA"/>
<path transform="translate(699,584)" d="m0 0 5 2-2 4 1 2h-5l-2-3 1-4z" fill="#B2A88B"/>
<path transform="translate(383,581)" d="m0 0 4 1 1 5-1 2-5-1v-6z" fill="#4F4837"/>
<path transform="translate(345,581)" d="m0 0 4 1v6l-5 1-1-6z" fill="#484438"/>
<path transform="translate(563,547)" d="m0 0h7l-4 2v10l-3-1z" fill="#EFE5CA"/>
<path transform="translate(205,547)" d="m0 0h7v2h-4v9h-3z" fill="#F3EACC"/>
<path transform="translate(1506,366)" d="m0 0 3 1-6 7-5 4-1-2 7-8z" fill="#29251F"/>
<path transform="translate(1474,350)" d="m0 0m-1 1m-1 1m-2 1 2 1-10 12-4 2 2-4 7-8z" fill="#2C271E"/>
<path transform="translate(1515,334)" d="m0 0h2l3 10v6h-2l-3-11z" fill="#1C1B1C"/>
<path transform="translate(272,581)" d="m0 0 4 2v5l-5 1-1-1v-5z" fill="#454238"/>
<path transform="translate(637,549)" d="m0 0 5 1v5l-4 2-2-2v-5z" fill="#4C4637"/>
<path transform="translate(373,549)" d="m0 0 1 3 4 1h-4l1 3 6-1v3l-6 1-4-3v-5z" fill="#FAF8F1"/>
<path transform="translate(242,615)" d="m0 0 6 2-3 2-1 3 7-2-2 4-7-1-1-7z" fill="#FAF7F1"/>
<path transform="translate(354,580)" d="m0 0h7l-1 2h-2l-1 9h-3z" fill="#F5EED7"/>
<path transform="translate(278,549)" d="m0 0 5 1v6h-5l-1-1v-5z" fill="#4E493A"/>
<path transform="translate(215,549)" d="m0 0 1 3 4 1h-5l2 3 6-1v3l-7 1-3-3v-5z" fill="#FAF8F2"/>
<path transform="translate(742,547)" d="m0 0h6l-2 2-1 10-3-1z" fill="#F3EACD"/>
<path transform="translate(423,543)" d="m0 0h2v15l-4-1 1-1v-6l-2-3h3z" fill="#FDFDFD"/>
<path transform="translate(291,579)" d="m0 0h5l1 1v11h-3v-11z" fill="#EBDFBA"/>
<path transform="translate(348,549)" d="m0 0h5v7l-4 1-1-1z" fill="#464237"/>
<path transform="translate(193,614)" d="m0 0h4v7l-4 1-1-1v-6z" fill="#4A4538"/>
<path transform="translate(347,612)" d="m0 0 4 1v10h-3v-9l-3-1z" fill="#EFE5C8"/>
<path transform="translate(336,579)" d="m0 0h3v12h-3z" fill="#F5EED8"/>
<path transform="translate(281,580)" d="m0 0h6l-3 1v10h-3z" fill="#F6EFD9"/>
<path transform="translate(621,547)" d="m0 0h3l1 2v9h-3v-9l-4-1z" fill="#EEDFAE"/>
<path transform="translate(499,547)" d="m0 0h3v12h-3z" fill="#EBE0BF"/>
<path transform="translate(1436,399)" d="m0 0 8 1 4 2-1 2-6-1-9-2z" fill="#373124"/>
<path transform="translate(1492,346)" d="m0 0 8 1 4 2-1 2-15-3z" fill="#423B29"/>
<path transform="translate(1640,337)" d="m0 0 1 3-4 15-2-4 2-9z" fill="#8E6C30"/>
<path transform="translate(249,682)" d="m0 0 3 1v9l1 2h-4l-1-11z" fill="#191819"/>
<path transform="translate(620,579)" d="m0 0h2v12h-3v-11z" fill="#FDFDFD"/>
<path transform="translate(558,547)" d="m0 0 3 1v11h-3z" fill="#EFE4C1"/>
<path transform="translate(288,547)" d="m0 0h3l1 12-4-2z" fill="#F2EACE"/>
<path transform="translate(302,684)" d="m0 0 5 1 1 1v6l-1 2h-6l-1-3h6l1-2-4-1h3l-1-2z" fill="#1A191A"/>
<path transform="translate(256,585)" d="m0 0 3 1-1 5-6 1-3-4 7 1z" fill="#F3EBD1"/>
<path transform="translate(535,547)" d="m0 0h7v3l-5-1v2l3 1-1 2-5-2z" fill="#EFE5CA"/>
<path transform="translate(551,547)" d="m0 0 4 1 1 1v9h-3v-9h-2z" fill="#F6F0DB"/>
<path transform="translate(408,547)" d="m0 0h3l1 3v8h-3v-9l-3-1z" fill="#F1E8CC"/>
<path transform="translate(1431,417)" d="m0 0 3 6v8h-2l-2-7z" fill="#26241F"/>
<path transform="translate(1458,410)" d="m0 0 2 1-4 6-4 4-3-1 7-8z" fill="#302A1F"/>
<path transform="translate(1443,299)" d="m0 0 7 1 4 1v3l-8-1-5-2z" fill="#3B3528"/>
<path transform="translate(284,612)" d="m0 0h3l1 12h-2l-2-3z" fill="#F3E9CC"/>
<path transform="translate(482,547)" d="m0 0h3v12h-5l4-1-2-2z" fill="#E5D195"/>
<path transform="translate(1441,426)" d="m0 0m-7 1 2 3 3-3 2 1-4 6-4 1-1-4h2z" fill="#3E3523"/>
<path transform="translate(328,547)" d="m0 0h6v2h-4v10h-2z" fill="#F7F3E5"/>
<path transform="translate(1488,361)" d="m0 0 2 2 1 9h-3l-2-9z" fill="#413A29"/>
<path transform="translate(422,348)" d="m0 0h2l-2 11-1 4h-2l2-14z" fill="#9B854C"/>
<path transform="translate(1454,302)" d="m0 0 11 2 3 3-9-1-5-2z" fill="#1B1A1B"/>
<path transform="translate(229,612)" d="m0 0h5v2l-2 1-1 9h-2z" fill="#F8F4E9"/>
<path transform="translate(393,583)" d="m0 0h2l1 5 3 2 1 2-6-1-2-2v-5z" fill="#E9DAAE"/>
<path transform="translate(1324,367)" d="m0 0 4 2-1 5-4-1-1-3z" fill="#946F30"/>
<path transform="translate(1428,328)" d="m0 0 12 3v2l-9-1-4-2z" fill="#23201C"/>
<path transform="translate(1530,322)" d="m0 0 10 2v2l3 2-5-1-7-2z" fill="#3E3728"/>
<path transform="translate(343,580)" d="m0 0 1 3v6l4 1-5 1-2-2v-7z" fill="#F8F4E5"/>
<path transform="translate(227,579)" d="m0 0h6l2 4-6-1-3 1-1 5h-1v-6z" fill="#E8D9AB"/>
<path transform="translate(707,547)" d="m0 0h6v2h-4v9h-2z" fill="#FAF7EE"/>
<path transform="translate(488,547)" d="m0 0h7l1 3-6-1 2 4-5-1z" fill="#F3EBD4"/>
<path transform="translate(315,547)" d="m0 0h2v9h5l-3 1v2l-4-2z" fill="#F3EDD9"/>
<path transform="translate(1517,319)" d="m0 0 8 1 5 2v2l-10-2z" fill="#1E1E1E"/>
<path transform="translate(212,689)" d="m0 0 3 1v2l8-3-1 4-2 1h-6l-2-2z" fill="#181718"/>
<path transform="translate(459,547)" d="m0 0h7l1 4-6-1-1 5-3-4z" fill="#EBDDB7"/>
<path transform="translate(1449,353)" d="m0 0 3 1 1 10-2 1-2-8z" fill="#1B1B1B"/>
<path transform="translate(1399,298)" d="m0 0 3 1 1 2v8l-3-3z" fill="#29241D"/>
<path transform="translate(266,684)" d="m0 0 3 1v9l-3-1z" fill="#353026"/>
<path transform="translate(276,684)" d="m0 0 5 1v9h-2l-1-8-3-1z" fill="#25221E"/>
<path transform="translate(380,584)" d="m0 0h2l1 4 3 2 1 2-6-1-2-3z" fill="#F0E5C3"/>
<path transform="translate(590,582)" d="m0 0h9v2l-7 1-1 6h-1z" fill="#8B7744"/>
<path transform="translate(301,547)" d="m0 0h6l-4 2v9h-2z" fill="#FDFDFD"/>
<path transform="translate(247,547)" d="m0 0h6l2 2v4l-4-1 1-3h-6z" fill="#FAF7ED"/>
<path transform="translate(1460,389)" d="m0 0 2 2 1 8-3 1-1-9z" fill="#433A27"/>
<path transform="translate(1484,352)" d="m0 0h2l2 6v6l-3-3z" fill="#161516"/>
<path transform="translate(1403,307)" d="m0 0 2 1 1 8-3 1-2-9z" fill="#413A29"/>
<path transform="translate(1621,622)" d="m0 0h2l5 8-1 3-4-5-2-3z" fill="#D5AD4F"/>
<path transform="translate(245,580)" d="m0 0 2 1v10h-5l2-3z" fill="#FCFBF7"/>
<path transform="translate(277,547)" d="m0 0 4 1-3 2 1 8-3-1-1-2v-6z" fill="#FCFBF7"/>
<path transform="translate(1408,331)" d="m0 0h2l3 7-1 4v-3l-3 1z" fill="#312B21"/>
<path transform="translate(258,686)" d="m0 0 4 1-1 5-4-1z" fill="#CAA34A"/>
<path transform="translate(257,684)" d="m0 0h5l-1 2-3 1v5h-3l-1-4z" fill="#1C1B1C"/>
<path transform="translate(367,547)" d="m0 0h2v11l-4-1z" fill="#FBFAF7"/>
<path transform="translate(647,547)" d="m0 0h2l1 9 3 2h-5l-1-1z" fill="#FDFDFD"/>
<path transform="translate(1409,290)" d="m0 0 7 1 1 3h-5l-1-1-7-1v-1z" fill="#3F3829"/>
</svg>
