<?xml version="1.0" encoding="UTF-8"?>
<svg version="1.1" viewBox="0 0 1600 958" width="1280" height="1280" xmlns="http://www.w3.org/2000/svg">
<path transform="translate(0)" d="m0 0h1600v958h-1600z" fill="#3F352A"/>
<path transform="translate(0,61)" d="m0 0h1598v333l-7 2h-28l-75-2-33-1-49-1-137-3-69-1-97-2-196-2h-247l-58 1h-20l-89 1-109 2-58 1-39 1-107 2-76 2-84 2-20 1z" fill="#A4ACBA"/>
<path transform="translate(1061,641)" d="m0 0 5 1 20 20 7 8 20 20 6 8 2 1 136 1 5 6 16 47 10 29 310 1 1 113 1 33v29h-1600v-200l55-19 64-22 43-15 47-16 23-8 5 1v4h14l8 1 86 2 12 2-5 5-9 6-14 10-18 13-16 12-14 10-13 8-23 11-33 15-9 4h271l11-6 25-16 24-15 23-14 38-24 48-30 26-16 14-9h3l2 44v35h226l-2 6-15 24-12 19-2 3 134-1 9-31 24-76z" fill="#482814"/>
<path transform="translate(1183,116)" d="m0 0h39l16 3 12 4 16 8 11 7 14 12 10 13 9 15 5 6 1 7 4 8 6 16 6 17 2 9 3 1 5 8 3 8h4l5 5 4 2v2l5 1 5 5 5 2 6 1 3 3h4l-10-5-4-6 5 1 10 4 7 2 5 2 8 1 17 1 11 2h7l5-1 4 3 2-1 15-1 9 1 1-1h21l9-1 3 2h7l1-1 16-1h11l16-3 13 3 6 3 6 1 6-3 2-6 1-11h1v110l-1-2-18 1h-128l-63-1h-83l-114-1h-85l-80-1h-485l-82 1h-100l-102 1h-27l-126 1h-21l-82 1v-94l10 1 5 1 6-2 3-2h18l7 2 5 2h21l4 1 9-1 16 1 8 2h12l2-1h12l8 2 28 2h8l2 1h14l3 1h14l23 2 17 1 20 1 3 1h8l3 1h7l6-1 17 2 2 1h19l18 1 7 1h22l18 2 3 1h44l5 2h34l13 1h24l4 1h20l11 1h38l4 1h42l8 1h21l18 1h100l14 1 5-1h36l2 1 64-2 13-2h8l19-3 21-6 9-1v-2l7-4-2 4 4-1 3-1 2-4 8-7h2l2-4 6-7 8-16 1 4 5-12 4-9 9-17 8-14 7-10 9-12 7-8h2l2-4 14-13h2l2-4 11-9 10-6 11-6 18-9 14-5z" fill="#C2C5C9"/>
<path transform="translate(11,1)" d="m0 0h1572l9 3 4 5 1 2v50h-1597v-53l5-5z" fill="#1F1F1F"/>
<path transform="translate(697,405)" d="m0 0h212l72 1 38 1 70 2 32 1 52 2 35 1 37 2 54 2 162 8 105 6h29l3-1v40l-1 4-6 5-16 3-19-1-6-1-44-3-5-1-35-3-20-2-16-1-5-1-62-5-45-4-28-2-20-2-36-2-31-2-26-2-76-5-87-4-53-2-79-2-61-1h-23l-85 1-83 2-95 4-56 3-10 1-23 1-16 1-36 3-43 3-16 2-22 1-50 3-26 3-40 3-33 3-46 4-36 3-45 5-23 1h-14v-50l12-1 26-1 46-3 59-3 14-1 38-2 133-6 70-3 77-3 37-1 30-1 81-2h21z" fill="#4A423A"/>
<path transform="translate(1222,609)" d="m0 0h335l22 6 10 4 8 3 1 20 2 64v223h-1l-1-33v-113h-310l-4-9-21-63-4-8-1-3h3l2-11 7-29 5-19-5-1-19-12-24-15z" fill="#83533A"/>
<path transform="translate(0)" d="m0 0h1600v575l-1 38h-1l-1-182-2 1h-31l-53-3-50-3-146-7-61-3-32-1-23-1-57-2-91-3-44-1-38-1-77-1h-195l-63 1h-16l-76 2-39 1-84 3-29 1-16 1-53 2-19 1-149 7-29 2-42 2-48 3-25 1h-9v-36l1-1 26-1 111-3 48-1 108-2 81-2 132-2 91-1h17l46-1h259l183 2 97 2h15l54 1 187 4 115 3h20l6-1v-333l-1-50-4-6-9-3h-1572l-8 3-3 3z" fill="#65605C"/>
<path transform="translate(716,524)" d="m0 0h172l13 24 11 19 6 10 6 11v9l-2 30-5 91-2 12h-226l-1-10-3-68-2-28-1-28-1-4 4-10 20-40 10-17z" fill="#713D8E"/>
<path transform="translate(456,607)" d="m0 0 1 2h226l2 33v10l-26 16-72 45-19 12-21 13-26 16-22 14-19 12-6 3h-273l2-2 33-15 26-12 15-8 15-11 16-12 17-12 15-11 10-7 7-5 17-1 7-3 18-14 11-8 32-24 13-10 2-2v-8l-1-2z" fill="#83543A"/>
<path transform="translate(1597,357)" d="m0 0h1v37l-7 2h-28l-75-2-33-1-49-1-137-3-69-1-97-2-196-2h-247l-58 1h-20l-89 1-109 2-58 1-39 1-107 2-76 2-84 2-20 1v-23l5-1 78-1h35l133-1h25l101-1h82l100-1h468l81 1h96l122 1h62l74 1h134z" fill="#ADAFB3"/>
<path transform="translate(38,609)" d="m0 0h222l-2 2-7 3-24 11h-3l12 50v3l-36 12-50 17-43 15-44 15-60 21h-3v-137l9-3 25-8z" fill="#83533A"/>
<path transform="translate(923,609)" d="m0 0h142l-2 19-1 3v7l1 3h-2l-2 9-10 31-12 38-11 35-8 28-1 1h-134l2-5 9-14 12-19 8-14h-226v-11h1v10h226l3-48 4-68z" fill="#83533A"/>
<path transform="translate(1069,585)" d="m0 0h115l11 7 16 10 18 11 22 14 21 13 3 1-2 11-11 45-1 3-4 1-136-1-5-5-12-13-18-18-7-8-18-18v-7l2-11 4-29z" fill="#316042"/>
<path transform="translate(0)" d="m0 0h1600v522h-1l-1-112h-14l-104-4-33-1-62-2-61-2-81-2-38-1-52-1-68-2h-15l-49-1-208-2h-54l-121 1-44 1h-39l-27 1h-25l-78 2h-12l-32 1-52 1-52 2-44 1-64 2-49 2-61 2-50 2h-9v-13l1-1 26-1 111-3 48-1 108-2 81-2 132-2 91-1h17l46-1h259l183 2 97 2h15l54 1 187 4 115 3h20l6-1v-333l-1-50-4-6-9-3h-1572l-8 3-3 3z" fill="#7F7F7E"/>
<path transform="translate(372,577)" d="m0 0h44l36 1v7h2l3 31 1 2v8l-10 9-14 10-17 13-28 21-11 8-4 1h-22l-7-1-86-2-22-2-12-50-1-8 21-9 9-5 11-4 16-7 13-6 6-2 3 4 3 15 1 1h12l1-1 10-1 8-4h2l-1-7 9-5 1-6 14-2 8-4z" fill="#1E406D"/>
<path transform="translate(697,405)" d="m0 0h212l72 1 38 1 70 2 32 1 52 2 35 1 37 2 54 2 162 8 105 6h29l3-1v13l-2 2-20 2-33-2-26-2-49-3-24-2-24-1-95-6-92-5-90-4-20-1-81-3-76-2-48-1-92-1h-84l-73 1-80 2-66 2-95 4-80 4-70 4-60 3-9 1-69 4-28 2-47 3-43 3-22 1v-15l12-1 26-1 46-3 59-3 14-1 38-2 133-6 70-3 77-3 37-1 30-1 81-2h21z" fill="#5B544E"/>
<path transform="translate(716,524)" d="m0 0h172l13 24 11 19 6 10 6 12h-241l1-5 21-42 10-17z" fill="#B473C8"/>
<path transform="translate(1597,357)" d="m0 0h1v37l-7 2h-28l-75-2-33-1-49-1-137-3-69-1-97-2-196-2h-247l-58 1h-20l-89 1-109 2-58 1-39 1-107 2-76 2-84 2-20 1v-12l117-2 132-2 80-1 41-1h24l93-1 111-1 293-1 126 1h18l74 1h22l72 1h19l49 1h24l70 1 171 3h60z" fill="#979898"/>
<path transform="translate(759,391)" d="m0 0h71l124 1 73 1 58 1 69 2 57 1 147 4 64 2 49 2 39 1 49 2 35 1 4 1 1 3v14h-1v-7h-34l-56-3-32-1-140-6-33-1-26-1-235-7-135-2h-234l-161 3-109 3-61 2-35 1-15 1-33 1-170 7-81 4h-8v-11l16-1 46-2 114-4 61-2 73-2 29-1 52-1 32-1 90-2h16l38-1h28l52-1z" fill="#726F6C"/>
<path transform="translate(1171,178)" d="m0 0h21l13 4 8 5 5 5 4 5 5 10 2 7v19l-3 12-8 16-11 13-8 7-12 8-15 6-7 2-11 1-15-1-12-5-12-11-8-16-1-7v-17l4-13 7-14 7-9 12-12 13-8 13-5z" fill="#E7E7E8"/>
<path transform="translate(372,577)" d="m0 0h44l36 1v7h2l3 31 1 2v8l-10 9-14 10-17 13-28 21-11 8h-2l-7-39-3-16v-3h-46l-35-1 2-2 20-6 12-4 5-1v-3l12-5 4-1-1-7 9-5 1-6 14-2 8-4z" fill="#44A09A"/>
<path transform="translate(1183,585)" d="m0 0 14 8 9 6 13 8 24 15 19 12v1h-7l-1 4 3 2h-45l-10-1-2-1h-7l-3-1-17-1-21 1-3 1-1 2h-17l-12-11-8-7-10-9-14-12-12-11-5-5z" fill="#449F99"/>
<path transform="translate(617,373)" d="m0 0h335l263 2 114 1 146 2h21l34 1h41l23-1 3 2v5h-67l-251-4h-17l-49-1h-19l-80-1h-22l-72-1h-23l-126-1-403 2-82 1h-17l-52 1-70 1-197 3h-50v-5l6-1h31l48-1h43l149-2 82-1h47l89-1h38z" fill="#9EA5AC"/>
<path transform="translate(660,383)" d="m0 0h260l183 2 97 2h15l54 1 187 4 115 3h20l7-1v5l-10 1-118-3-31-1-49-1-64-2-162-3-48-1-139-2-137-1h-110l-196 2h-15l-50 1-61 1-40 1-86 2-134 3-25 1-52 1-56 2-15 1 1-5 26-1 111-3 48-1 108-2 81-2 132-2 91-1h17z" fill="#8D7F7D"/>
<path transform="translate(336,517)" d="m0 0h2l3 14 2 1-2 4-10 4h-2l2 6v6l10-3-1-5 1-4 9-3-4-5h11l5 1 1 9 6 25-1 2-5-2v2h-2v6l-12 5h-3l-2-11-5 1-3 1 1 11-1 7h2l2 12v5l-10 5-10 1-1 1h-12l-2-2-3-15-2-2-1-9h-3v-2h3l-2-8-2-11-1-6 10-1 8-3 9-3-1-9-21-1-2-12v-7l4-1 2 2h18l9-2 6-1z" fill="#1F1F1F"/>
<path transform="translate(742,413)" d="m0 0h99l84 1 83 2 64 2 55 2 64 3 100 5 54 3 44 3 35 2 34 2 77 5 24 2 18 1 19-2 2-1v6l-2 2-49-3-42-3-48-3-6-1-37-2-56-4-38-2-82-5-25-1-102-5-38-1-54-2-71-2-61-1h-182l-103 2-86 3-73 3-59 3-43 2-24 2-72 4-12 1-52 3-105 7-37 3-23 1-16 1 1-4 54-3 40-3 36-2 26-2 52-3 11-1 114-6 51-3 136-6 108-3 50-1z" fill="#55463E"/>
<path transform="translate(0)" d="m0 0h1600l-1 45h-1l-1-31-4-8-5-3-5-1h-1572l-8 3-3 3z" fill="#8F9090"/>
<path transform="translate(17,13)" d="m0 0h27l2 1v30h-30l-1-1v-28z" fill="#57534D"/>
<path transform="translate(336,517)" d="m0 0h2l3 14 2 1-2 4-10 4h-2l2 6v6l3 1-13-1-1-10-21-1-2-12v-7l4-1 2 2h18l9-2 6-1z" fill="#1F1F1E"/>
<path transform="translate(913)" d="m0 0h687l-1 45h-1l-1-31-4-8-5-3-5-1-670-1z" fill="#979899"/>
<path transform="translate(278,430)" d="m0 0m-3 0 3 1v2l-45 3-52 3-105 7-37 3-23 1-16 1 1-4 54-3 40-3 36-2 26-2 52-3 11-1z" fill="#55463E"/>
<path transform="translate(1358,433)" d="m0 0h16l36 2 14 1 34 2 77 5 24 2 18 1 19-2 2-1v6l-2 2-49-3-42-3-48-3-6-1-37-2-56-4z" fill="#54453D"/>
<path transform="translate(309,470)" d="m0 0h2l7 11 10 14 2 4h2v2l-6 2-10 2h-18l1-7 9-27z" fill="#1F1F1E"/>
<path transform="translate(1599,11)" d="m0 0h1v165l-1 199h-1l-1-314v-47z" fill="#787775"/>
<path transform="translate(363,567)" d="m0 0 6 2v7l-9 7-11 4v7l-6 4h-4l-1-2v-7h-2v-8l-1-10 6-3 4 1 1 4v7l13-5h2v-6h2z" fill="#83543C"/>
<path transform="translate(318,503)" d="m0 0h6l-1 2 3 13v4l2 1-7 1h-18l-2-2-3-13v-4l18-1z" fill="#492814"/>
<path transform="translate(300,541)" d="m0 0h17l3 1 2 9-10 4-8 3h-10l2 6h-3l-3-3v-2h-2l2-6 7-8z" fill="#492814"/>
<path transform="translate(26,18)" d="m0 0 6 1h4v3l6 1-1 14-4 3h-13l-4-3-1-14 5-1z" fill="#58A29F"/>
<path transform="translate(1443,22)" d="m0 0h16v16h-16z" fill="#222120"/>
<path transform="translate(210,21)" d="m0 0h9l5 4v8l-4 5-2 1h-8z" fill="#292726"/>
<path transform="translate(1599,575)" d="m0 0h1v131h-1l-2-64v-20l1-9z" fill="#494139"/>
<path transform="translate(299,592)" d="m0 0 3 3v5l-16 5-23 6h-5l3-2 20-9 13-6z" fill="#44A09A"/>
<path transform="translate(330,501)" d="m0 0h3l3 13v6l-6 2h-4l-4-18z" fill="#84543A"/>
<path transform="translate(343,532)" d="m0 0 6 2 1 3-9 3v6 4l-5 2h-5l-2-12 13-6z" fill="#83533A"/>
<path transform="translate(132,21)" d="m0 0h9l2 2-1 7 2 2-1 5-2 2h-8l-1-1z" fill="#CECFD0"/>
<path transform="translate(1534)" d="m0 0h66l-1 45h-1l-1-31-4-8-5-3-5-1-49-1z" fill="#94989A"/>
<path transform="translate(1442,19)" d="m0 0h18l1 1v19l-1 1h-19l-1-1v-18zm1 3v16h16v-16z" fill="#D0D1D3"/>
<path transform="translate(240,21)" d="m0 0h8l2 2v5 3l1 5-3 3h-8z" fill="#C3C5C7"/>
<path transform="translate(315,541)" d="m0 0 5 1 2 9-10 4-10 2v-2l5-5 4-5 1-3z" fill="#84543A"/>
<path transform="translate(297,575)" d="m0 0h1l1 8h-3v2h3l2 6-1 1h-6l-6-4-1-5 7-6z" fill="#84543A"/>
<path transform="translate(1539,19)" d="m0 0 5 3 6 5 8-8h2l-2 4-6 7 8 8v2l-4-1-6-6-4 2-5 5h-2l2-4 5-5-2-4-5-5z" fill="#C7C8C9"/>
<path transform="translate(56,21)" d="m0 0h9l2 2v6l-3 3h-5v7h-3z" fill="#D0D1D3"/>
<path transform="translate(81,26)" d="m0 0h6l3 3v7l-3 3h-6l-3-3v-7z" fill="#CECFD2"/>
<path transform="translate(149,26)" d="m0 0h6l3 3v7l-3 3h-6l-3-3v-7z" fill="#CECFD2"/>
<path transform="translate(164,26)" d="m0 0h6l3 3v7l-3 3h-6l-3-3v-7z" fill="#CFD1D3"/>
<path transform="translate(1598,896)" d="m0 0h1l1 33v29h-6l1-5 2-6z" fill="#413B35"/>
<path transform="translate(325,540)" d="m0 0h4l2 6v6l3 1-13-1-1-10-3-1z" fill="#492814"/>
<path transform="translate(125,22)" d="m0 0h2v4h3v2h-3v9h3v2l-5-1-1-3v-7l-4 1-5 1v5l5 1v3l-7-1-2-3 1-6 3-3h10z" fill="#CACBCD"/>
<path transform="translate(368,576)" d="m0 0h2l1 7-8 4-5 1h-9l-1-2 12-4z" fill="#242527"/>
<path transform="translate(0)" d="m0 0h77v1l-66 1-8 3-3 3z" fill="#A1A8B3"/>
<path transform="translate(275,21)" d="m0 0h9v2h-7l-3 2v9l2 2 6 1-1-6-3-2h7v9l-1 1h-9l-4-4-1-2v-7z" fill="#C6C7CA"/>
<path transform="translate(210,21)" d="m0 0h9l5 4v8l-4 5-2 1h-8zm2 1v15h6l3-3v-9l-4-3z" fill="#E2E3E4"/>
<path transform="translate(254,21)" d="m0 0h2l1 13 1 2h5l1-2 1-13h3v13l-4 5h-7l-3-3z" fill="#D1D1D2"/>
<path transform="translate(102,26)" d="m0 0h5l3 3v4h-9l1 3h7l-1 3h-6l-3-3v-7z" fill="#DADBDC"/>
<path transform="translate(227,21)" d="m0 0h10v1h-7v7h6v2h-6v6h7v2h-10z" fill="#C8C9CB"/>
<path transform="translate(40,34)" d="m0 0 1 3-4 3h-13l-4-3v-2l9 1h3 5z" fill="#48A09B"/>
<path transform="translate(187,22)" d="m0 0h3v4h3v2h-3v9h3v2l-5-1-1-1v-9h-2v-2h2z" fill="#C3C4C6"/>
<path transform="translate(165,28)" d="m0 0 5 1 1 1v5l-2 2-5-1-1-1v-5z" fill="#2C2B2A"/>
<path transform="translate(150,28)" d="m0 0 5 1 1 1v5l-2 2-5-1-1-6z" fill="#292928"/>
<path transform="translate(82,28)" d="m0 0 5 1 1 1v5l-2 2-5-1-1-6z" fill="#2A2929"/>
<path transform="translate(178,26)" d="m0 0h5l-1 3-4-1 1 3 5 3-1 4-1 1h-6v-3l5 1-1-3-5-2 1-5z" fill="#CCCDCF"/>
<path transform="translate(205,21)" d="m0 0 2 1-2 4v11l2 6-3-1-3-6v-9z" fill="#C8C8CA"/>
<path transform="translate(93,26)" d="m0 0h3v14l-2 4h-5l3-2z" fill="#C9CBCD"/>
<path transform="translate(21,33)" d="m0 0h6v2l1-2h5v2l4-2 4 1-4 3h-5-3-5l-3-2z" fill="#C0C6CC"/>
<path transform="translate(287,21)" d="m0 0 4 2 1 2v13l-3 5h-2l2-6v-9z" fill="#D2D3D4"/>
<path transform="translate(0)" d="m0 0h20v1l-13 2-4 2-3 3z" fill="#7E7D7C"/>
<path transform="translate(223,25)" d="m0 0h1v8l-4 5-2 1h-8l2-2 7-2 1-1 1-7h2z" fill="#C4C6C8"/>
<path transform="translate(131,27)" d="m0 0h1v11l-5-1v-9z" fill="#272624"/>
<path transform="translate(240,21)" d="m0 0h7l-1 2-4-1v7h5l-4 2v7h-3z" fill="#E5E5E6"/>
<path transform="translate(102,26)" d="m0 0h5l3 3-1 4-1-1h-7z" fill="#7E7E7D"/>
<path transform="translate(1591)" d="m0 0h9v11l-3-4-5-5z" fill="#A4ABB8"/>
<path transform="translate(1599,944)" d="m0 0h1v14h-6l1-5 3-1z" fill="#1E242C"/>
<path transform="translate(366,569)" d="m0 0h3v7l-6 5-2-1 4-8z" fill="#ACABAD"/>
<path transform="translate(140,28)" d="m0 0 4 4-1 5-2 2h-8l3-2 4-1v-4l-4-2z" fill="#C0C1C3"/>
<path transform="translate(59,22)" d="m0 0 5 1v6l-5 1z" fill="#272726"/>
<path transform="translate(70,26)" d="m0 0h7v2l-4 2-1 9h-2z" fill="#D0D1D3"/>
<path transform="translate(173,31)" d="m0 0 8 3v3h-5l-2 1z" fill="#32302E"/>
<path transform="translate(275,21)" d="m0 0h9v2h-7l-4 4-1 6h-2v-7z" fill="#D4D5D7"/>
<path transform="translate(242,31)" d="m0 0h5l1 5-1 1h-5z" fill="#2D2B2A"/>
<path transform="translate(135,31)" d="m0 0h5l1 5-1 1h-5z" fill="#2A2927"/>
<path transform="translate(242,22)" d="m0 0 5 1v5l-5 1z" fill="#353331"/>
<path transform="translate(135,22)" d="m0 0 5 1v5l-5 1z" fill="#363331"/>
<path transform="translate(278,29)" d="m0 0h7v9h-3l-1-7z" fill="#D1D3D5"/>
<path transform="translate(111,31)" d="m0 0h3l2 5h5l-1 3-7-1-2-3z" fill="#C3C4C6"/>
<path transform="translate(22,27)" d="m0 0h5l1 5h-6z" fill="#A2A5AA"/>
<path transform="translate(247,21)" d="m0 0 3 2v5l-2 4-5-1 3-3z" fill="#C1C2C4"/>
<path transform="translate(101,33)" d="m0 0h8v3l-7 1z" fill="#3A3836"/>
<path transform="translate(28,31)" d="m0 0 9 1-1 3h-3v-2h-5l-1 3-2-2-1-2z" fill="#419896"/>
<path transform="translate(178,26)" d="m0 0h5l-1 3-4-1 1 4-2 1-2-1 1-5z" fill="#C9CBCE"/>
</svg>
